<mxfile host="app.diagrams.net" agent="Mozilla/5.0 (Windows NT 10.0; Win64; x64) AppleWebKit/537.36 (KHTML, like Gecko) Chrome/129.0.0.0 Safari/537.36" version="24.7.17">
  <diagram id="C5RBs43oDa-KdzZeNtuy" name="Page-1">
    <mxGraphModel dx="1114" dy="3900" grid="1" gridSize="10" guides="1" tooltips="1" connect="1" arrows="1" fold="1" page="1" pageScale="1" pageWidth="2339" pageHeight="3300" math="0" shadow="0">
      <root>
        <mxCell id="WIyWlLk6GJQsqaUBKTNV-0" />
        <mxCell id="WIyWlLk6GJQsqaUBKTNV-1" parent="WIyWlLk6GJQsqaUBKTNV-0" />
        <mxCell id="qO4f61m2Y4nxAiU2VlyZ-42" value="&lt;font style=&quot;font-size: 15px;&quot;&gt;&lt;span style=&quot;white-space: pre;&quot;&gt;&#x9;&lt;/span&gt;Construir un diagrama de flujo&lt;/font&gt;&lt;div style=&quot;font-size: 15px;&quot;&gt;&lt;font style=&quot;font-size: 15px;&quot;&gt;&lt;span style=&quot;white-space: pre;&quot;&gt;&#x9;&lt;/span&gt;1. Explique el algoritmo de funcionamiento de un cruce de semáforo el cual esta construido por 4 semáforos.&amp;nbsp;&lt;/font&gt;&lt;/div&gt;&lt;div style=&quot;font-size: 15px;&quot;&gt;&lt;font style=&quot;font-size: 15px;&quot;&gt;&lt;span style=&quot;white-space: pre;&quot;&gt;&#x9;&lt;/span&gt;&lt;span style=&quot;white-space: pre;&quot;&gt;&#x9;&lt;/span&gt;&lt;span style=&quot;white-space: pre;&quot;&gt;&#x9;&lt;/span&gt;&lt;span style=&quot;white-space: pre;&quot;&gt;&#x9;&lt;/span&gt;&lt;span style=&quot;white-space: pre;&quot;&gt;&#x9;&lt;/span&gt;&lt;span style=&quot;white-space: pre;&quot;&gt;&#x9;&lt;/span&gt;&lt;span style=&quot;white-space: pre;&quot;&gt;&#x9;&lt;/span&gt;&lt;span style=&quot;white-space: pre;&quot;&gt;&#x9;&lt;/span&gt;&lt;span style=&quot;white-space: pre;&quot;&gt;&#x9;&lt;/span&gt;&lt;span style=&quot;white-space: pre;&quot;&gt;&#x9;&lt;/span&gt;&lt;span style=&quot;white-space: pre;&quot;&gt;&#x9;&lt;/span&gt;&lt;span style=&quot;white-space: pre;&quot;&gt;&#x9;&lt;/span&gt;&lt;span style=&quot;white-space: pre;&quot;&gt;&#x9;&lt;/span&gt;&lt;span style=&quot;white-space: pre;&quot;&gt;&#x9;&lt;/span&gt;&lt;span style=&quot;white-space: pre;&quot;&gt;&#x9;&lt;/span&gt;3 luces, rojo, amarillo y verde&lt;/font&gt;&lt;/div&gt;&lt;div style=&quot;font-size: 15px;&quot;&gt;&lt;font style=&quot;font-size: 15px;&quot;&gt;&lt;span style=&quot;white-space: pre;&quot;&gt;&#x9;&lt;/span&gt;2. Mas la luz de el tiempo para el cruce peatonal&lt;/font&gt;&lt;/div&gt;&lt;div style=&quot;font-size: 15px;&quot;&gt;&lt;font style=&quot;font-size: 15px;&quot;&gt;&lt;span style=&quot;white-space: pre;&quot;&gt;&#x9;&lt;/span&gt;3. Explique con leguaje formal, &lt;b style=&quot;&quot;&gt;CADA PASO&amp;nbsp;&lt;/b&gt;&amp;nbsp;&lt;/font&gt;&lt;/div&gt;" style="strokeWidth=2;html=1;shape=mxgraph.flowchart.annotation_1;align=left;pointerEvents=1;fillColor=#f5f5f5;fontColor=#333333;strokeColor=#666666;" vertex="1" parent="WIyWlLk6GJQsqaUBKTNV-1">
          <mxGeometry x="20" y="-350" width="60" height="130" as="geometry" />
        </mxCell>
        <mxCell id="qO4f61m2Y4nxAiU2VlyZ-44" value="Luz de carril 1, encendido" style="verticalLabelPosition=bottom;verticalAlign=top;html=1;shape=process;whiteSpace=wrap;rounded=1;size=0.14;arcSize=6;fillColor=#d5e8d4;strokeColor=#82b366;rotation=0;" vertex="1" parent="WIyWlLk6GJQsqaUBKTNV-1">
          <mxGeometry x="308" y="-20" width="80" height="50" as="geometry" />
        </mxCell>
        <mxCell id="qO4f61m2Y4nxAiU2VlyZ-268" value="" style="edgeStyle=orthogonalEdgeStyle;curved=1;rounded=0;orthogonalLoop=1;jettySize=auto;html=1;elbow=vertical;" edge="1" parent="WIyWlLk6GJQsqaUBKTNV-1" source="qO4f61m2Y4nxAiU2VlyZ-45" target="qO4f61m2Y4nxAiU2VlyZ-266">
          <mxGeometry relative="1" as="geometry" />
        </mxCell>
        <mxCell id="qO4f61m2Y4nxAiU2VlyZ-45" value="Luz de carril 2, apagado" style="verticalLabelPosition=bottom;verticalAlign=top;html=1;shape=process;whiteSpace=wrap;rounded=1;size=0.14;arcSize=6;fillColor=#f8cecc;strokeColor=#b85450;" vertex="1" parent="WIyWlLk6GJQsqaUBKTNV-1">
          <mxGeometry x="308" y="180" width="80" height="50" as="geometry" />
        </mxCell>
        <mxCell id="qO4f61m2Y4nxAiU2VlyZ-280" value="" style="edgeStyle=elbowEdgeStyle;rounded=0;orthogonalLoop=1;jettySize=auto;elbow=vertical;html=1;" edge="1" parent="WIyWlLk6GJQsqaUBKTNV-1" source="qO4f61m2Y4nxAiU2VlyZ-47" target="qO4f61m2Y4nxAiU2VlyZ-278">
          <mxGeometry relative="1" as="geometry" />
        </mxCell>
        <mxCell id="qO4f61m2Y4nxAiU2VlyZ-47" value="Luz de carril 3, apagado" style="verticalLabelPosition=bottom;verticalAlign=top;html=1;shape=process;whiteSpace=wrap;rounded=1;size=0.14;arcSize=6;fillColor=#f8cecc;strokeColor=#b85450;" vertex="1" parent="WIyWlLk6GJQsqaUBKTNV-1">
          <mxGeometry x="308" y="390" width="80" height="50" as="geometry" />
        </mxCell>
        <mxCell id="qO4f61m2Y4nxAiU2VlyZ-286" value="" style="edgeStyle=elbowEdgeStyle;rounded=0;orthogonalLoop=1;jettySize=auto;elbow=vertical;html=1;" edge="1" parent="WIyWlLk6GJQsqaUBKTNV-1" source="qO4f61m2Y4nxAiU2VlyZ-48" target="qO4f61m2Y4nxAiU2VlyZ-283">
          <mxGeometry relative="1" as="geometry" />
        </mxCell>
        <mxCell id="qO4f61m2Y4nxAiU2VlyZ-48" value="Luz de carril 4, apagado" style="verticalLabelPosition=bottom;verticalAlign=top;html=1;shape=process;whiteSpace=wrap;rounded=1;size=0.14;arcSize=6;fillColor=#f8cecc;strokeColor=#b85450;" vertex="1" parent="WIyWlLk6GJQsqaUBKTNV-1">
          <mxGeometry x="308" y="590" width="80" height="50" as="geometry" />
        </mxCell>
        <mxCell id="qO4f61m2Y4nxAiU2VlyZ-261" value="" style="edgeStyle=orthogonalEdgeStyle;curved=1;rounded=0;orthogonalLoop=1;jettySize=auto;html=1;elbow=vertical;" edge="1" parent="WIyWlLk6GJQsqaUBKTNV-1" source="qO4f61m2Y4nxAiU2VlyZ-52" target="qO4f61m2Y4nxAiU2VlyZ-44">
          <mxGeometry relative="1" as="geometry" />
        </mxCell>
        <mxCell id="qO4f61m2Y4nxAiU2VlyZ-265" value="loop" style="edgeLabel;html=1;align=center;verticalAlign=middle;resizable=0;points=[];" vertex="1" connectable="0" parent="qO4f61m2Y4nxAiU2VlyZ-261">
          <mxGeometry x="-0.2857" y="-6" relative="1" as="geometry">
            <mxPoint as="offset" />
          </mxGeometry>
        </mxCell>
        <mxCell id="qO4f61m2Y4nxAiU2VlyZ-52" value="empezar" style="strokeWidth=2;html=1;shape=mxgraph.flowchart.loop_limit;whiteSpace=wrap;fillColor=#e1d5e7;strokeColor=#9673a6;" vertex="1" parent="WIyWlLk6GJQsqaUBKTNV-1">
          <mxGeometry x="168" y="-110" width="100" height="60" as="geometry" />
        </mxCell>
        <mxCell id="qO4f61m2Y4nxAiU2VlyZ-312" value="" style="edgeStyle=elbowEdgeStyle;rounded=0;orthogonalLoop=1;jettySize=auto;elbow=vertical;html=1;" edge="1" parent="WIyWlLk6GJQsqaUBKTNV-1" source="qO4f61m2Y4nxAiU2VlyZ-67" target="qO4f61m2Y4nxAiU2VlyZ-289">
          <mxGeometry relative="1" as="geometry" />
        </mxCell>
        <mxCell id="qO4f61m2Y4nxAiU2VlyZ-67" value="esperamos 25&lt;span style=&quot;background-color: initial;&quot;&gt;&amp;nbsp;segundos&lt;/span&gt;" style="strokeWidth=2;html=1;shape=mxgraph.flowchart.delay;whiteSpace=wrap;fillColor=#dae8fc;strokeColor=#6c8ebf;" vertex="1" parent="WIyWlLk6GJQsqaUBKTNV-1">
          <mxGeometry x="308" y="780" width="80" height="52" as="geometry" />
        </mxCell>
        <mxCell id="qO4f61m2Y4nxAiU2VlyZ-68" style="edgeStyle=elbowEdgeStyle;rounded=0;orthogonalLoop=1;jettySize=auto;elbow=vertical;html=1;entryX=0.5;entryY=0;entryDx=0;entryDy=0;entryPerimeter=0;" edge="1" parent="WIyWlLk6GJQsqaUBKTNV-1" source="qO4f61m2Y4nxAiU2VlyZ-67" target="qO4f61m2Y4nxAiU2VlyZ-67">
          <mxGeometry relative="1" as="geometry" />
        </mxCell>
        <mxCell id="qO4f61m2Y4nxAiU2VlyZ-69" value="luz peatonal 2&lt;div&gt;encendido&lt;/div&gt;" style="verticalLabelPosition=bottom;verticalAlign=top;html=1;shape=process;whiteSpace=wrap;rounded=1;size=0.14;arcSize=6;fillColor=#d5e8d4;strokeColor=#82b366;" vertex="1" parent="WIyWlLk6GJQsqaUBKTNV-1">
          <mxGeometry x="490" y="90" width="80" height="50" as="geometry" />
        </mxCell>
        <mxCell id="qO4f61m2Y4nxAiU2VlyZ-253" style="edgeStyle=orthogonalEdgeStyle;curved=1;rounded=0;orthogonalLoop=1;jettySize=auto;html=1;exitX=0.5;exitY=1;exitDx=0;exitDy=0;entryX=0.5;entryY=0;entryDx=0;entryDy=0;elbow=vertical;exitPerimeter=0;" edge="1" parent="WIyWlLk6GJQsqaUBKTNV-1" source="qO4f61m2Y4nxAiU2VlyZ-248" target="qO4f61m2Y4nxAiU2VlyZ-45">
          <mxGeometry relative="1" as="geometry" />
        </mxCell>
        <mxCell id="qO4f61m2Y4nxAiU2VlyZ-264" value="" style="edgeStyle=orthogonalEdgeStyle;curved=1;rounded=0;orthogonalLoop=1;jettySize=auto;html=1;elbow=vertical;" edge="1" parent="WIyWlLk6GJQsqaUBKTNV-1" source="qO4f61m2Y4nxAiU2VlyZ-248" target="qO4f61m2Y4nxAiU2VlyZ-69">
          <mxGeometry relative="1" as="geometry" />
        </mxCell>
        <mxCell id="qO4f61m2Y4nxAiU2VlyZ-248" value="si luz de carril 1 esta encendido" style="strokeWidth=2;html=1;shape=mxgraph.flowchart.decision;whiteSpace=wrap;fillColor=#ffe6cc;strokeColor=#d79b00;" vertex="1" parent="WIyWlLk6GJQsqaUBKTNV-1">
          <mxGeometry x="268" y="80" width="160" height="70" as="geometry" />
        </mxCell>
        <mxCell id="qO4f61m2Y4nxAiU2VlyZ-252" style="edgeStyle=orthogonalEdgeStyle;curved=1;rounded=0;orthogonalLoop=1;jettySize=auto;html=1;exitX=0.5;exitY=1;exitDx=0;exitDy=0;entryX=0.5;entryY=0;entryDx=0;entryDy=0;entryPerimeter=0;elbow=vertical;" edge="1" parent="WIyWlLk6GJQsqaUBKTNV-1" source="qO4f61m2Y4nxAiU2VlyZ-44" target="qO4f61m2Y4nxAiU2VlyZ-248">
          <mxGeometry relative="1" as="geometry" />
        </mxCell>
        <mxCell id="qO4f61m2Y4nxAiU2VlyZ-267" value="" style="edgeStyle=elbowEdgeStyle;rounded=0;orthogonalLoop=1;jettySize=auto;html=1;elbow=vertical;" edge="1" parent="WIyWlLk6GJQsqaUBKTNV-1" source="qO4f61m2Y4nxAiU2VlyZ-266" target="qO4f61m2Y4nxAiU2VlyZ-47">
          <mxGeometry relative="1" as="geometry" />
        </mxCell>
        <mxCell id="qO4f61m2Y4nxAiU2VlyZ-274" value="" style="edgeStyle=orthogonalEdgeStyle;curved=1;rounded=0;orthogonalLoop=1;jettySize=auto;html=1;elbow=vertical;" edge="1" parent="WIyWlLk6GJQsqaUBKTNV-1" source="qO4f61m2Y4nxAiU2VlyZ-266" target="qO4f61m2Y4nxAiU2VlyZ-269">
          <mxGeometry relative="1" as="geometry" />
        </mxCell>
        <mxCell id="qO4f61m2Y4nxAiU2VlyZ-266" value="si luz de carril 2 esta encendido" style="strokeWidth=2;html=1;shape=mxgraph.flowchart.decision;whiteSpace=wrap;fillColor=#ffe6cc;strokeColor=#d79b00;" vertex="1" parent="WIyWlLk6GJQsqaUBKTNV-1">
          <mxGeometry x="268" y="270" width="160" height="70" as="geometry" />
        </mxCell>
        <mxCell id="qO4f61m2Y4nxAiU2VlyZ-269" value="luz peatonal 3&lt;div&gt;apagado&lt;/div&gt;" style="verticalLabelPosition=bottom;verticalAlign=top;html=1;shape=process;whiteSpace=wrap;rounded=1;size=0.14;arcSize=6;fillColor=#f8cecc;strokeColor=#b85450;" vertex="1" parent="WIyWlLk6GJQsqaUBKTNV-1">
          <mxGeometry x="480" y="280" width="80" height="50" as="geometry" />
        </mxCell>
        <mxCell id="qO4f61m2Y4nxAiU2VlyZ-279" value="" style="edgeStyle=elbowEdgeStyle;rounded=0;orthogonalLoop=1;jettySize=auto;elbow=vertical;html=1;" edge="1" parent="WIyWlLk6GJQsqaUBKTNV-1" source="qO4f61m2Y4nxAiU2VlyZ-278" target="qO4f61m2Y4nxAiU2VlyZ-48">
          <mxGeometry relative="1" as="geometry" />
        </mxCell>
        <mxCell id="qO4f61m2Y4nxAiU2VlyZ-282" value="" style="edgeStyle=elbowEdgeStyle;rounded=0;orthogonalLoop=1;jettySize=auto;elbow=vertical;html=1;" edge="1" parent="WIyWlLk6GJQsqaUBKTNV-1" source="qO4f61m2Y4nxAiU2VlyZ-278" target="qO4f61m2Y4nxAiU2VlyZ-281">
          <mxGeometry relative="1" as="geometry" />
        </mxCell>
        <mxCell id="qO4f61m2Y4nxAiU2VlyZ-278" value="si luz de carril 2 esta encendido" style="strokeWidth=2;html=1;shape=mxgraph.flowchart.decision;whiteSpace=wrap;fillColor=#ffe6cc;strokeColor=#d79b00;" vertex="1" parent="WIyWlLk6GJQsqaUBKTNV-1">
          <mxGeometry x="268" y="480" width="160" height="70" as="geometry" />
        </mxCell>
        <mxCell id="qO4f61m2Y4nxAiU2VlyZ-281" value="luz peatonal 4&lt;div&gt;apagado&lt;/div&gt;" style="verticalLabelPosition=bottom;verticalAlign=top;html=1;shape=process;whiteSpace=wrap;rounded=1;size=0.14;arcSize=6;fillColor=#f8cecc;strokeColor=#b85450;" vertex="1" parent="WIyWlLk6GJQsqaUBKTNV-1">
          <mxGeometry x="470" y="490" width="80" height="50" as="geometry" />
        </mxCell>
        <mxCell id="qO4f61m2Y4nxAiU2VlyZ-284" value="" style="edgeStyle=elbowEdgeStyle;rounded=0;orthogonalLoop=1;jettySize=auto;elbow=vertical;html=1;" edge="1" parent="WIyWlLk6GJQsqaUBKTNV-1" source="qO4f61m2Y4nxAiU2VlyZ-283" target="qO4f61m2Y4nxAiU2VlyZ-67">
          <mxGeometry relative="1" as="geometry" />
        </mxCell>
        <mxCell id="qO4f61m2Y4nxAiU2VlyZ-288" value="" style="edgeStyle=elbowEdgeStyle;rounded=0;orthogonalLoop=1;jettySize=auto;elbow=vertical;html=1;" edge="1" parent="WIyWlLk6GJQsqaUBKTNV-1" source="qO4f61m2Y4nxAiU2VlyZ-283" target="qO4f61m2Y4nxAiU2VlyZ-287">
          <mxGeometry relative="1" as="geometry" />
        </mxCell>
        <mxCell id="qO4f61m2Y4nxAiU2VlyZ-283" value="si luz de carril 2 esta encendido" style="strokeWidth=2;html=1;shape=mxgraph.flowchart.decision;whiteSpace=wrap;fillColor=#ffe6cc;strokeColor=#d79b00;" vertex="1" parent="WIyWlLk6GJQsqaUBKTNV-1">
          <mxGeometry x="268" y="680" width="160" height="70" as="geometry" />
        </mxCell>
        <mxCell id="qO4f61m2Y4nxAiU2VlyZ-287" value="luz peatonal 1&lt;div&gt;apagado&lt;/div&gt;" style="verticalLabelPosition=bottom;verticalAlign=top;html=1;shape=process;whiteSpace=wrap;rounded=1;size=0.14;arcSize=6;fillColor=#f8cecc;strokeColor=#b85450;" vertex="1" parent="WIyWlLk6GJQsqaUBKTNV-1">
          <mxGeometry x="470" y="690" width="80" height="50" as="geometry" />
        </mxCell>
        <mxCell id="qO4f61m2Y4nxAiU2VlyZ-289" value="Luz de carril 1, amarillo" style="verticalLabelPosition=bottom;verticalAlign=top;html=1;shape=process;whiteSpace=wrap;rounded=1;size=0.14;arcSize=6;fillColor=#fff2cc;strokeColor=#d6b656;rotation=0;" vertex="1" parent="WIyWlLk6GJQsqaUBKTNV-1">
          <mxGeometry x="308" y="870" width="80" height="50" as="geometry" />
        </mxCell>
        <mxCell id="qO4f61m2Y4nxAiU2VlyZ-290" value="" style="edgeStyle=orthogonalEdgeStyle;curved=1;rounded=0;orthogonalLoop=1;jettySize=auto;html=1;elbow=vertical;" edge="1" parent="WIyWlLk6GJQsqaUBKTNV-1" source="qO4f61m2Y4nxAiU2VlyZ-291" target="qO4f61m2Y4nxAiU2VlyZ-303">
          <mxGeometry relative="1" as="geometry" />
        </mxCell>
        <mxCell id="qO4f61m2Y4nxAiU2VlyZ-291" value="Luz de carril 2, apagado" style="verticalLabelPosition=bottom;verticalAlign=top;html=1;shape=process;whiteSpace=wrap;rounded=1;size=0.14;arcSize=6;fillColor=#f8cecc;strokeColor=#b85450;" vertex="1" parent="WIyWlLk6GJQsqaUBKTNV-1">
          <mxGeometry x="308" y="1070" width="80" height="50" as="geometry" />
        </mxCell>
        <mxCell id="qO4f61m2Y4nxAiU2VlyZ-292" value="" style="edgeStyle=elbowEdgeStyle;rounded=0;orthogonalLoop=1;jettySize=auto;elbow=vertical;html=1;" edge="1" parent="WIyWlLk6GJQsqaUBKTNV-1" source="qO4f61m2Y4nxAiU2VlyZ-293" target="qO4f61m2Y4nxAiU2VlyZ-307">
          <mxGeometry relative="1" as="geometry" />
        </mxCell>
        <mxCell id="qO4f61m2Y4nxAiU2VlyZ-293" value="Luz de carril 3, apagado" style="verticalLabelPosition=bottom;verticalAlign=top;html=1;shape=process;whiteSpace=wrap;rounded=1;size=0.14;arcSize=6;fillColor=#f8cecc;strokeColor=#b85450;" vertex="1" parent="WIyWlLk6GJQsqaUBKTNV-1">
          <mxGeometry x="308" y="1280" width="80" height="50" as="geometry" />
        </mxCell>
        <mxCell id="qO4f61m2Y4nxAiU2VlyZ-294" value="" style="edgeStyle=elbowEdgeStyle;rounded=0;orthogonalLoop=1;jettySize=auto;elbow=vertical;html=1;" edge="1" parent="WIyWlLk6GJQsqaUBKTNV-1" source="qO4f61m2Y4nxAiU2VlyZ-295" target="qO4f61m2Y4nxAiU2VlyZ-310">
          <mxGeometry relative="1" as="geometry" />
        </mxCell>
        <mxCell id="qO4f61m2Y4nxAiU2VlyZ-295" value="Luz de carril 4, apagado" style="verticalLabelPosition=bottom;verticalAlign=top;html=1;shape=process;whiteSpace=wrap;rounded=1;size=0.14;arcSize=6;fillColor=#f8cecc;strokeColor=#b85450;" vertex="1" parent="WIyWlLk6GJQsqaUBKTNV-1">
          <mxGeometry x="308" y="1480" width="80" height="50" as="geometry" />
        </mxCell>
        <mxCell id="qO4f61m2Y4nxAiU2VlyZ-296" value="luz peatonal 2&lt;div&gt;apagado&lt;/div&gt;" style="verticalLabelPosition=bottom;verticalAlign=top;html=1;shape=process;whiteSpace=wrap;rounded=1;size=0.14;arcSize=6;fillColor=#f8cecc;strokeColor=#b85450;" vertex="1" parent="WIyWlLk6GJQsqaUBKTNV-1">
          <mxGeometry x="490" y="980" width="80" height="50" as="geometry" />
        </mxCell>
        <mxCell id="qO4f61m2Y4nxAiU2VlyZ-297" style="edgeStyle=orthogonalEdgeStyle;curved=1;rounded=0;orthogonalLoop=1;jettySize=auto;html=1;exitX=0.5;exitY=1;exitDx=0;exitDy=0;entryX=0.5;entryY=0;entryDx=0;entryDy=0;elbow=vertical;exitPerimeter=0;" edge="1" parent="WIyWlLk6GJQsqaUBKTNV-1" source="qO4f61m2Y4nxAiU2VlyZ-299" target="qO4f61m2Y4nxAiU2VlyZ-291">
          <mxGeometry relative="1" as="geometry" />
        </mxCell>
        <mxCell id="qO4f61m2Y4nxAiU2VlyZ-298" value="" style="edgeStyle=orthogonalEdgeStyle;curved=1;rounded=0;orthogonalLoop=1;jettySize=auto;html=1;elbow=vertical;" edge="1" parent="WIyWlLk6GJQsqaUBKTNV-1" source="qO4f61m2Y4nxAiU2VlyZ-299" target="qO4f61m2Y4nxAiU2VlyZ-296">
          <mxGeometry relative="1" as="geometry" />
        </mxCell>
        <mxCell id="qO4f61m2Y4nxAiU2VlyZ-299" value="si luz de carril 1 esta encendido" style="strokeWidth=2;html=1;shape=mxgraph.flowchart.decision;whiteSpace=wrap;fillColor=#ffe6cc;strokeColor=#d79b00;" vertex="1" parent="WIyWlLk6GJQsqaUBKTNV-1">
          <mxGeometry x="268" y="970" width="160" height="70" as="geometry" />
        </mxCell>
        <mxCell id="qO4f61m2Y4nxAiU2VlyZ-300" style="edgeStyle=orthogonalEdgeStyle;curved=1;rounded=0;orthogonalLoop=1;jettySize=auto;html=1;exitX=0.5;exitY=1;exitDx=0;exitDy=0;entryX=0.5;entryY=0;entryDx=0;entryDy=0;entryPerimeter=0;elbow=vertical;" edge="1" parent="WIyWlLk6GJQsqaUBKTNV-1" source="qO4f61m2Y4nxAiU2VlyZ-289" target="qO4f61m2Y4nxAiU2VlyZ-299">
          <mxGeometry relative="1" as="geometry" />
        </mxCell>
        <mxCell id="qO4f61m2Y4nxAiU2VlyZ-301" value="" style="edgeStyle=elbowEdgeStyle;rounded=0;orthogonalLoop=1;jettySize=auto;html=1;elbow=vertical;" edge="1" parent="WIyWlLk6GJQsqaUBKTNV-1" source="qO4f61m2Y4nxAiU2VlyZ-303" target="qO4f61m2Y4nxAiU2VlyZ-293">
          <mxGeometry relative="1" as="geometry" />
        </mxCell>
        <mxCell id="qO4f61m2Y4nxAiU2VlyZ-302" value="" style="edgeStyle=orthogonalEdgeStyle;curved=1;rounded=0;orthogonalLoop=1;jettySize=auto;html=1;elbow=vertical;" edge="1" parent="WIyWlLk6GJQsqaUBKTNV-1" source="qO4f61m2Y4nxAiU2VlyZ-303" target="qO4f61m2Y4nxAiU2VlyZ-304">
          <mxGeometry relative="1" as="geometry" />
        </mxCell>
        <mxCell id="qO4f61m2Y4nxAiU2VlyZ-303" value="si luz de carril 2 esta encendido" style="strokeWidth=2;html=1;shape=mxgraph.flowchart.decision;whiteSpace=wrap;fillColor=#ffe6cc;strokeColor=#d79b00;" vertex="1" parent="WIyWlLk6GJQsqaUBKTNV-1">
          <mxGeometry x="268" y="1160" width="160" height="70" as="geometry" />
        </mxCell>
        <mxCell id="qO4f61m2Y4nxAiU2VlyZ-304" value="luz peatonal 3&lt;div&gt;apagado&lt;/div&gt;" style="verticalLabelPosition=bottom;verticalAlign=top;html=1;shape=process;whiteSpace=wrap;rounded=1;size=0.14;arcSize=6;fillColor=#f8cecc;strokeColor=#b85450;" vertex="1" parent="WIyWlLk6GJQsqaUBKTNV-1">
          <mxGeometry x="480" y="1170" width="80" height="50" as="geometry" />
        </mxCell>
        <mxCell id="qO4f61m2Y4nxAiU2VlyZ-305" value="" style="edgeStyle=elbowEdgeStyle;rounded=0;orthogonalLoop=1;jettySize=auto;elbow=vertical;html=1;" edge="1" parent="WIyWlLk6GJQsqaUBKTNV-1" source="qO4f61m2Y4nxAiU2VlyZ-307" target="qO4f61m2Y4nxAiU2VlyZ-295">
          <mxGeometry relative="1" as="geometry" />
        </mxCell>
        <mxCell id="qO4f61m2Y4nxAiU2VlyZ-306" value="" style="edgeStyle=elbowEdgeStyle;rounded=0;orthogonalLoop=1;jettySize=auto;elbow=vertical;html=1;" edge="1" parent="WIyWlLk6GJQsqaUBKTNV-1" source="qO4f61m2Y4nxAiU2VlyZ-307" target="qO4f61m2Y4nxAiU2VlyZ-308">
          <mxGeometry relative="1" as="geometry" />
        </mxCell>
        <mxCell id="qO4f61m2Y4nxAiU2VlyZ-307" value="si luz de carril 2 esta encendido" style="strokeWidth=2;html=1;shape=mxgraph.flowchart.decision;whiteSpace=wrap;fillColor=#ffe6cc;strokeColor=#d79b00;" vertex="1" parent="WIyWlLk6GJQsqaUBKTNV-1">
          <mxGeometry x="268" y="1370" width="160" height="70" as="geometry" />
        </mxCell>
        <mxCell id="qO4f61m2Y4nxAiU2VlyZ-308" value="luz peatonal 4&lt;div&gt;apagado&lt;/div&gt;" style="verticalLabelPosition=bottom;verticalAlign=top;html=1;shape=process;whiteSpace=wrap;rounded=1;size=0.14;arcSize=6;fillColor=#f8cecc;strokeColor=#b85450;" vertex="1" parent="WIyWlLk6GJQsqaUBKTNV-1">
          <mxGeometry x="470" y="1380" width="80" height="50" as="geometry" />
        </mxCell>
        <mxCell id="qO4f61m2Y4nxAiU2VlyZ-309" value="" style="edgeStyle=elbowEdgeStyle;rounded=0;orthogonalLoop=1;jettySize=auto;elbow=vertical;html=1;" edge="1" parent="WIyWlLk6GJQsqaUBKTNV-1" source="qO4f61m2Y4nxAiU2VlyZ-310" target="qO4f61m2Y4nxAiU2VlyZ-311">
          <mxGeometry relative="1" as="geometry" />
        </mxCell>
        <mxCell id="qO4f61m2Y4nxAiU2VlyZ-314" value="" style="edgeStyle=elbowEdgeStyle;rounded=0;orthogonalLoop=1;jettySize=auto;elbow=vertical;html=1;" edge="1" parent="WIyWlLk6GJQsqaUBKTNV-1" source="qO4f61m2Y4nxAiU2VlyZ-310" target="qO4f61m2Y4nxAiU2VlyZ-313">
          <mxGeometry relative="1" as="geometry" />
        </mxCell>
        <mxCell id="qO4f61m2Y4nxAiU2VlyZ-310" value="si luz de carril 2 esta encendido" style="strokeWidth=2;html=1;shape=mxgraph.flowchart.decision;whiteSpace=wrap;fillColor=#ffe6cc;strokeColor=#d79b00;" vertex="1" parent="WIyWlLk6GJQsqaUBKTNV-1">
          <mxGeometry x="268" y="1570" width="160" height="70" as="geometry" />
        </mxCell>
        <mxCell id="qO4f61m2Y4nxAiU2VlyZ-311" value="luz peatonal 1&lt;div&gt;apagado&lt;/div&gt;" style="verticalLabelPosition=bottom;verticalAlign=top;html=1;shape=process;whiteSpace=wrap;rounded=1;size=0.14;arcSize=6;fillColor=#f8cecc;strokeColor=#b85450;" vertex="1" parent="WIyWlLk6GJQsqaUBKTNV-1">
          <mxGeometry x="470" y="1580" width="80" height="50" as="geometry" />
        </mxCell>
        <mxCell id="qO4f61m2Y4nxAiU2VlyZ-367" value="" style="edgeStyle=elbowEdgeStyle;rounded=0;orthogonalLoop=1;jettySize=auto;elbow=vertical;html=1;" edge="1" parent="WIyWlLk6GJQsqaUBKTNV-1" source="qO4f61m2Y4nxAiU2VlyZ-313" target="qO4f61m2Y4nxAiU2VlyZ-315">
          <mxGeometry relative="1" as="geometry" />
        </mxCell>
        <mxCell id="qO4f61m2Y4nxAiU2VlyZ-313" value="Esperar 5 segundos" style="strokeWidth=2;html=1;shape=mxgraph.flowchart.delay;whiteSpace=wrap;fillColor=#dae8fc;strokeColor=#6c8ebf;" vertex="1" parent="WIyWlLk6GJQsqaUBKTNV-1">
          <mxGeometry x="298" y="1680" width="100" height="60" as="geometry" />
        </mxCell>
        <mxCell id="qO4f61m2Y4nxAiU2VlyZ-315" value="Luz de carril 1, encendido" style="verticalLabelPosition=bottom;verticalAlign=top;html=1;shape=process;whiteSpace=wrap;rounded=1;size=0.14;arcSize=6;fillColor=#d5e8d4;strokeColor=#82b366;rotation=0;" vertex="1" parent="WIyWlLk6GJQsqaUBKTNV-1">
          <mxGeometry x="308" y="1790" width="80" height="50" as="geometry" />
        </mxCell>
        <mxCell id="qO4f61m2Y4nxAiU2VlyZ-316" value="" style="edgeStyle=orthogonalEdgeStyle;curved=1;rounded=0;orthogonalLoop=1;jettySize=auto;html=1;elbow=vertical;" edge="1" parent="WIyWlLk6GJQsqaUBKTNV-1" source="qO4f61m2Y4nxAiU2VlyZ-317" target="qO4f61m2Y4nxAiU2VlyZ-332">
          <mxGeometry relative="1" as="geometry" />
        </mxCell>
        <mxCell id="qO4f61m2Y4nxAiU2VlyZ-317" value="Luz de carril 2, apagado" style="verticalLabelPosition=bottom;verticalAlign=top;html=1;shape=process;whiteSpace=wrap;rounded=1;size=0.14;arcSize=6;fillColor=#f8cecc;strokeColor=#b85450;" vertex="1" parent="WIyWlLk6GJQsqaUBKTNV-1">
          <mxGeometry x="308" y="1990" width="80" height="50" as="geometry" />
        </mxCell>
        <mxCell id="qO4f61m2Y4nxAiU2VlyZ-318" value="" style="edgeStyle=elbowEdgeStyle;rounded=0;orthogonalLoop=1;jettySize=auto;elbow=vertical;html=1;" edge="1" parent="WIyWlLk6GJQsqaUBKTNV-1" source="qO4f61m2Y4nxAiU2VlyZ-319" target="qO4f61m2Y4nxAiU2VlyZ-336">
          <mxGeometry relative="1" as="geometry" />
        </mxCell>
        <mxCell id="qO4f61m2Y4nxAiU2VlyZ-319" value="Luz de carril 3, apagado" style="verticalLabelPosition=bottom;verticalAlign=top;html=1;shape=process;whiteSpace=wrap;rounded=1;size=0.14;arcSize=6;fillColor=#f8cecc;strokeColor=#b85450;" vertex="1" parent="WIyWlLk6GJQsqaUBKTNV-1">
          <mxGeometry x="308" y="2200" width="80" height="50" as="geometry" />
        </mxCell>
        <mxCell id="qO4f61m2Y4nxAiU2VlyZ-320" value="" style="edgeStyle=elbowEdgeStyle;rounded=0;orthogonalLoop=1;jettySize=auto;elbow=vertical;html=1;" edge="1" parent="WIyWlLk6GJQsqaUBKTNV-1" source="qO4f61m2Y4nxAiU2VlyZ-321" target="qO4f61m2Y4nxAiU2VlyZ-340">
          <mxGeometry relative="1" as="geometry" />
        </mxCell>
        <mxCell id="qO4f61m2Y4nxAiU2VlyZ-321" value="Luz de carril 4, apagado" style="verticalLabelPosition=bottom;verticalAlign=top;html=1;shape=process;whiteSpace=wrap;rounded=1;size=0.14;arcSize=6;fillColor=#f8cecc;strokeColor=#b85450;" vertex="1" parent="WIyWlLk6GJQsqaUBKTNV-1">
          <mxGeometry x="308" y="2400" width="80" height="50" as="geometry" />
        </mxCell>
        <mxCell id="qO4f61m2Y4nxAiU2VlyZ-322" value="" style="edgeStyle=elbowEdgeStyle;rounded=0;orthogonalLoop=1;jettySize=auto;elbow=vertical;html=1;" edge="1" parent="WIyWlLk6GJQsqaUBKTNV-1" source="qO4f61m2Y4nxAiU2VlyZ-323" target="qO4f61m2Y4nxAiU2VlyZ-342">
          <mxGeometry relative="1" as="geometry" />
        </mxCell>
        <mxCell id="qO4f61m2Y4nxAiU2VlyZ-323" value="esperamos 25&lt;span style=&quot;background-color: initial;&quot;&gt;&amp;nbsp;segundos&lt;/span&gt;" style="strokeWidth=2;html=1;shape=mxgraph.flowchart.delay;whiteSpace=wrap;fillColor=#dae8fc;strokeColor=#6c8ebf;" vertex="1" parent="WIyWlLk6GJQsqaUBKTNV-1">
          <mxGeometry x="308" y="2590" width="80" height="52" as="geometry" />
        </mxCell>
        <mxCell id="qO4f61m2Y4nxAiU2VlyZ-324" style="edgeStyle=elbowEdgeStyle;rounded=0;orthogonalLoop=1;jettySize=auto;elbow=vertical;html=1;entryX=0.5;entryY=0;entryDx=0;entryDy=0;entryPerimeter=0;" edge="1" parent="WIyWlLk6GJQsqaUBKTNV-1" source="qO4f61m2Y4nxAiU2VlyZ-323" target="qO4f61m2Y4nxAiU2VlyZ-323">
          <mxGeometry relative="1" as="geometry" />
        </mxCell>
        <mxCell id="qO4f61m2Y4nxAiU2VlyZ-325" value="luz peatonal 2&lt;div&gt;encendido&lt;/div&gt;" style="verticalLabelPosition=bottom;verticalAlign=top;html=1;shape=process;whiteSpace=wrap;rounded=1;size=0.14;arcSize=6;fillColor=#d5e8d4;strokeColor=#82b366;" vertex="1" parent="WIyWlLk6GJQsqaUBKTNV-1">
          <mxGeometry x="490" y="1900" width="80" height="50" as="geometry" />
        </mxCell>
        <mxCell id="qO4f61m2Y4nxAiU2VlyZ-326" style="edgeStyle=orthogonalEdgeStyle;curved=1;rounded=0;orthogonalLoop=1;jettySize=auto;html=1;exitX=0.5;exitY=1;exitDx=0;exitDy=0;entryX=0.5;entryY=0;entryDx=0;entryDy=0;elbow=vertical;exitPerimeter=0;" edge="1" parent="WIyWlLk6GJQsqaUBKTNV-1" source="qO4f61m2Y4nxAiU2VlyZ-328" target="qO4f61m2Y4nxAiU2VlyZ-317">
          <mxGeometry relative="1" as="geometry" />
        </mxCell>
        <mxCell id="qO4f61m2Y4nxAiU2VlyZ-327" value="" style="edgeStyle=orthogonalEdgeStyle;curved=1;rounded=0;orthogonalLoop=1;jettySize=auto;html=1;elbow=vertical;" edge="1" parent="WIyWlLk6GJQsqaUBKTNV-1" source="qO4f61m2Y4nxAiU2VlyZ-328" target="qO4f61m2Y4nxAiU2VlyZ-325">
          <mxGeometry relative="1" as="geometry" />
        </mxCell>
        <mxCell id="qO4f61m2Y4nxAiU2VlyZ-328" value="si luz de carril 1 esta encendido" style="strokeWidth=2;html=1;shape=mxgraph.flowchart.decision;whiteSpace=wrap;fillColor=#ffe6cc;strokeColor=#d79b00;" vertex="1" parent="WIyWlLk6GJQsqaUBKTNV-1">
          <mxGeometry x="268" y="1890" width="160" height="70" as="geometry" />
        </mxCell>
        <mxCell id="qO4f61m2Y4nxAiU2VlyZ-329" style="edgeStyle=orthogonalEdgeStyle;curved=1;rounded=0;orthogonalLoop=1;jettySize=auto;html=1;exitX=0.5;exitY=1;exitDx=0;exitDy=0;entryX=0.5;entryY=0;entryDx=0;entryDy=0;entryPerimeter=0;elbow=vertical;" edge="1" parent="WIyWlLk6GJQsqaUBKTNV-1" source="qO4f61m2Y4nxAiU2VlyZ-315" target="qO4f61m2Y4nxAiU2VlyZ-328">
          <mxGeometry relative="1" as="geometry" />
        </mxCell>
        <mxCell id="qO4f61m2Y4nxAiU2VlyZ-330" value="" style="edgeStyle=elbowEdgeStyle;rounded=0;orthogonalLoop=1;jettySize=auto;html=1;elbow=vertical;" edge="1" parent="WIyWlLk6GJQsqaUBKTNV-1" source="qO4f61m2Y4nxAiU2VlyZ-332" target="qO4f61m2Y4nxAiU2VlyZ-319">
          <mxGeometry relative="1" as="geometry" />
        </mxCell>
        <mxCell id="qO4f61m2Y4nxAiU2VlyZ-331" value="" style="edgeStyle=orthogonalEdgeStyle;curved=1;rounded=0;orthogonalLoop=1;jettySize=auto;html=1;elbow=vertical;" edge="1" parent="WIyWlLk6GJQsqaUBKTNV-1" source="qO4f61m2Y4nxAiU2VlyZ-332" target="qO4f61m2Y4nxAiU2VlyZ-333">
          <mxGeometry relative="1" as="geometry" />
        </mxCell>
        <mxCell id="qO4f61m2Y4nxAiU2VlyZ-332" value="si luz de carril 2 esta encendido" style="strokeWidth=2;html=1;shape=mxgraph.flowchart.decision;whiteSpace=wrap;fillColor=#ffe6cc;strokeColor=#d79b00;" vertex="1" parent="WIyWlLk6GJQsqaUBKTNV-1">
          <mxGeometry x="268" y="2080" width="160" height="70" as="geometry" />
        </mxCell>
        <mxCell id="qO4f61m2Y4nxAiU2VlyZ-333" value="luz peatonal 3&lt;div&gt;apagado&lt;/div&gt;" style="verticalLabelPosition=bottom;verticalAlign=top;html=1;shape=process;whiteSpace=wrap;rounded=1;size=0.14;arcSize=6;fillColor=#f8cecc;strokeColor=#b85450;" vertex="1" parent="WIyWlLk6GJQsqaUBKTNV-1">
          <mxGeometry x="480" y="2090" width="80" height="50" as="geometry" />
        </mxCell>
        <mxCell id="qO4f61m2Y4nxAiU2VlyZ-334" value="" style="edgeStyle=elbowEdgeStyle;rounded=0;orthogonalLoop=1;jettySize=auto;elbow=vertical;html=1;" edge="1" parent="WIyWlLk6GJQsqaUBKTNV-1" source="qO4f61m2Y4nxAiU2VlyZ-336" target="qO4f61m2Y4nxAiU2VlyZ-321">
          <mxGeometry relative="1" as="geometry" />
        </mxCell>
        <mxCell id="qO4f61m2Y4nxAiU2VlyZ-335" value="" style="edgeStyle=elbowEdgeStyle;rounded=0;orthogonalLoop=1;jettySize=auto;elbow=vertical;html=1;" edge="1" parent="WIyWlLk6GJQsqaUBKTNV-1" source="qO4f61m2Y4nxAiU2VlyZ-336" target="qO4f61m2Y4nxAiU2VlyZ-337">
          <mxGeometry relative="1" as="geometry" />
        </mxCell>
        <mxCell id="qO4f61m2Y4nxAiU2VlyZ-336" value="si luz de carril 2 esta encendido" style="strokeWidth=2;html=1;shape=mxgraph.flowchart.decision;whiteSpace=wrap;fillColor=#ffe6cc;strokeColor=#d79b00;" vertex="1" parent="WIyWlLk6GJQsqaUBKTNV-1">
          <mxGeometry x="268" y="2290" width="160" height="70" as="geometry" />
        </mxCell>
        <mxCell id="qO4f61m2Y4nxAiU2VlyZ-337" value="luz peatonal 4&lt;div&gt;apagado&lt;/div&gt;" style="verticalLabelPosition=bottom;verticalAlign=top;html=1;shape=process;whiteSpace=wrap;rounded=1;size=0.14;arcSize=6;fillColor=#f8cecc;strokeColor=#b85450;" vertex="1" parent="WIyWlLk6GJQsqaUBKTNV-1">
          <mxGeometry x="470" y="2300" width="80" height="50" as="geometry" />
        </mxCell>
        <mxCell id="qO4f61m2Y4nxAiU2VlyZ-338" value="" style="edgeStyle=elbowEdgeStyle;rounded=0;orthogonalLoop=1;jettySize=auto;elbow=vertical;html=1;" edge="1" parent="WIyWlLk6GJQsqaUBKTNV-1" source="qO4f61m2Y4nxAiU2VlyZ-340" target="qO4f61m2Y4nxAiU2VlyZ-323">
          <mxGeometry relative="1" as="geometry" />
        </mxCell>
        <mxCell id="qO4f61m2Y4nxAiU2VlyZ-339" value="" style="edgeStyle=elbowEdgeStyle;rounded=0;orthogonalLoop=1;jettySize=auto;elbow=vertical;html=1;" edge="1" parent="WIyWlLk6GJQsqaUBKTNV-1" source="qO4f61m2Y4nxAiU2VlyZ-340" target="qO4f61m2Y4nxAiU2VlyZ-341">
          <mxGeometry relative="1" as="geometry" />
        </mxCell>
        <mxCell id="qO4f61m2Y4nxAiU2VlyZ-340" value="si luz de carril 2 esta encendido" style="strokeWidth=2;html=1;shape=mxgraph.flowchart.decision;whiteSpace=wrap;fillColor=#ffe6cc;strokeColor=#d79b00;" vertex="1" parent="WIyWlLk6GJQsqaUBKTNV-1">
          <mxGeometry x="268" y="2490" width="160" height="70" as="geometry" />
        </mxCell>
        <mxCell id="qO4f61m2Y4nxAiU2VlyZ-341" value="luz peatonal 1&lt;div&gt;apagado&lt;/div&gt;" style="verticalLabelPosition=bottom;verticalAlign=top;html=1;shape=process;whiteSpace=wrap;rounded=1;size=0.14;arcSize=6;fillColor=#f8cecc;strokeColor=#b85450;" vertex="1" parent="WIyWlLk6GJQsqaUBKTNV-1">
          <mxGeometry x="470" y="2500" width="80" height="50" as="geometry" />
        </mxCell>
        <mxCell id="qO4f61m2Y4nxAiU2VlyZ-342" value="Luz de carril 1, amarillo" style="verticalLabelPosition=bottom;verticalAlign=top;html=1;shape=process;whiteSpace=wrap;rounded=1;size=0.14;arcSize=6;fillColor=#fff2cc;strokeColor=#d6b656;rotation=0;" vertex="1" parent="WIyWlLk6GJQsqaUBKTNV-1">
          <mxGeometry x="308" y="2680" width="80" height="50" as="geometry" />
        </mxCell>
        <mxCell id="qO4f61m2Y4nxAiU2VlyZ-343" value="" style="edgeStyle=orthogonalEdgeStyle;curved=1;rounded=0;orthogonalLoop=1;jettySize=auto;html=1;elbow=vertical;" edge="1" parent="WIyWlLk6GJQsqaUBKTNV-1" source="qO4f61m2Y4nxAiU2VlyZ-344" target="qO4f61m2Y4nxAiU2VlyZ-356">
          <mxGeometry relative="1" as="geometry" />
        </mxCell>
        <mxCell id="qO4f61m2Y4nxAiU2VlyZ-344" value="Luz de carril 2, apagado" style="verticalLabelPosition=bottom;verticalAlign=top;html=1;shape=process;whiteSpace=wrap;rounded=1;size=0.14;arcSize=6;fillColor=#f8cecc;strokeColor=#b85450;" vertex="1" parent="WIyWlLk6GJQsqaUBKTNV-1">
          <mxGeometry x="308" y="2880" width="80" height="50" as="geometry" />
        </mxCell>
        <mxCell id="qO4f61m2Y4nxAiU2VlyZ-345" value="" style="edgeStyle=elbowEdgeStyle;rounded=0;orthogonalLoop=1;jettySize=auto;elbow=vertical;html=1;" edge="1" parent="WIyWlLk6GJQsqaUBKTNV-1" source="qO4f61m2Y4nxAiU2VlyZ-346" target="qO4f61m2Y4nxAiU2VlyZ-360">
          <mxGeometry relative="1" as="geometry" />
        </mxCell>
        <mxCell id="qO4f61m2Y4nxAiU2VlyZ-346" value="Luz de carril 3, apagado" style="verticalLabelPosition=bottom;verticalAlign=top;html=1;shape=process;whiteSpace=wrap;rounded=1;size=0.14;arcSize=6;fillColor=#f8cecc;strokeColor=#b85450;" vertex="1" parent="WIyWlLk6GJQsqaUBKTNV-1">
          <mxGeometry x="308" y="3090" width="80" height="50" as="geometry" />
        </mxCell>
        <mxCell id="qO4f61m2Y4nxAiU2VlyZ-347" value="" style="edgeStyle=elbowEdgeStyle;rounded=0;orthogonalLoop=1;jettySize=auto;elbow=vertical;html=1;" edge="1" parent="WIyWlLk6GJQsqaUBKTNV-1" source="qO4f61m2Y4nxAiU2VlyZ-348" target="qO4f61m2Y4nxAiU2VlyZ-364">
          <mxGeometry relative="1" as="geometry" />
        </mxCell>
        <mxCell id="qO4f61m2Y4nxAiU2VlyZ-348" value="Luz de carril 4, apagado" style="verticalLabelPosition=bottom;verticalAlign=top;html=1;shape=process;whiteSpace=wrap;rounded=1;size=0.14;arcSize=6;fillColor=#f8cecc;strokeColor=#b85450;" vertex="1" parent="WIyWlLk6GJQsqaUBKTNV-1">
          <mxGeometry x="308" y="3290" width="80" height="50" as="geometry" />
        </mxCell>
        <mxCell id="qO4f61m2Y4nxAiU2VlyZ-349" value="luz peatonal 2&lt;div&gt;apagado&lt;/div&gt;" style="verticalLabelPosition=bottom;verticalAlign=top;html=1;shape=process;whiteSpace=wrap;rounded=1;size=0.14;arcSize=6;fillColor=#f8cecc;strokeColor=#b85450;" vertex="1" parent="WIyWlLk6GJQsqaUBKTNV-1">
          <mxGeometry x="490" y="2790" width="80" height="50" as="geometry" />
        </mxCell>
        <mxCell id="qO4f61m2Y4nxAiU2VlyZ-350" style="edgeStyle=orthogonalEdgeStyle;curved=1;rounded=0;orthogonalLoop=1;jettySize=auto;html=1;exitX=0.5;exitY=1;exitDx=0;exitDy=0;entryX=0.5;entryY=0;entryDx=0;entryDy=0;elbow=vertical;exitPerimeter=0;" edge="1" parent="WIyWlLk6GJQsqaUBKTNV-1" source="qO4f61m2Y4nxAiU2VlyZ-352" target="qO4f61m2Y4nxAiU2VlyZ-344">
          <mxGeometry relative="1" as="geometry" />
        </mxCell>
        <mxCell id="qO4f61m2Y4nxAiU2VlyZ-351" value="" style="edgeStyle=orthogonalEdgeStyle;curved=1;rounded=0;orthogonalLoop=1;jettySize=auto;html=1;elbow=vertical;" edge="1" parent="WIyWlLk6GJQsqaUBKTNV-1" source="qO4f61m2Y4nxAiU2VlyZ-352" target="qO4f61m2Y4nxAiU2VlyZ-349">
          <mxGeometry relative="1" as="geometry" />
        </mxCell>
        <mxCell id="qO4f61m2Y4nxAiU2VlyZ-352" value="si luz de carril 1 esta encendido" style="strokeWidth=2;html=1;shape=mxgraph.flowchart.decision;whiteSpace=wrap;fillColor=#ffe6cc;strokeColor=#d79b00;" vertex="1" parent="WIyWlLk6GJQsqaUBKTNV-1">
          <mxGeometry x="268" y="2780" width="160" height="70" as="geometry" />
        </mxCell>
        <mxCell id="qO4f61m2Y4nxAiU2VlyZ-353" style="edgeStyle=orthogonalEdgeStyle;curved=1;rounded=0;orthogonalLoop=1;jettySize=auto;html=1;exitX=0.5;exitY=1;exitDx=0;exitDy=0;entryX=0.5;entryY=0;entryDx=0;entryDy=0;entryPerimeter=0;elbow=vertical;" edge="1" parent="WIyWlLk6GJQsqaUBKTNV-1" source="qO4f61m2Y4nxAiU2VlyZ-342" target="qO4f61m2Y4nxAiU2VlyZ-352">
          <mxGeometry relative="1" as="geometry" />
        </mxCell>
        <mxCell id="qO4f61m2Y4nxAiU2VlyZ-354" value="" style="edgeStyle=elbowEdgeStyle;rounded=0;orthogonalLoop=1;jettySize=auto;html=1;elbow=vertical;" edge="1" parent="WIyWlLk6GJQsqaUBKTNV-1" source="qO4f61m2Y4nxAiU2VlyZ-356" target="qO4f61m2Y4nxAiU2VlyZ-346">
          <mxGeometry relative="1" as="geometry" />
        </mxCell>
        <mxCell id="qO4f61m2Y4nxAiU2VlyZ-355" value="" style="edgeStyle=orthogonalEdgeStyle;curved=1;rounded=0;orthogonalLoop=1;jettySize=auto;html=1;elbow=vertical;" edge="1" parent="WIyWlLk6GJQsqaUBKTNV-1" source="qO4f61m2Y4nxAiU2VlyZ-356" target="qO4f61m2Y4nxAiU2VlyZ-357">
          <mxGeometry relative="1" as="geometry" />
        </mxCell>
        <mxCell id="qO4f61m2Y4nxAiU2VlyZ-356" value="si luz de carril 2 esta encendido" style="strokeWidth=2;html=1;shape=mxgraph.flowchart.decision;whiteSpace=wrap;fillColor=#ffe6cc;strokeColor=#d79b00;" vertex="1" parent="WIyWlLk6GJQsqaUBKTNV-1">
          <mxGeometry x="268" y="2970" width="160" height="70" as="geometry" />
        </mxCell>
        <mxCell id="qO4f61m2Y4nxAiU2VlyZ-357" value="luz peatonal 3&lt;div&gt;apagado&lt;/div&gt;" style="verticalLabelPosition=bottom;verticalAlign=top;html=1;shape=process;whiteSpace=wrap;rounded=1;size=0.14;arcSize=6;fillColor=#f8cecc;strokeColor=#b85450;" vertex="1" parent="WIyWlLk6GJQsqaUBKTNV-1">
          <mxGeometry x="480" y="2980" width="80" height="50" as="geometry" />
        </mxCell>
        <mxCell id="qO4f61m2Y4nxAiU2VlyZ-358" value="" style="edgeStyle=elbowEdgeStyle;rounded=0;orthogonalLoop=1;jettySize=auto;elbow=vertical;html=1;" edge="1" parent="WIyWlLk6GJQsqaUBKTNV-1" source="qO4f61m2Y4nxAiU2VlyZ-360" target="qO4f61m2Y4nxAiU2VlyZ-348">
          <mxGeometry relative="1" as="geometry" />
        </mxCell>
        <mxCell id="qO4f61m2Y4nxAiU2VlyZ-359" value="" style="edgeStyle=elbowEdgeStyle;rounded=0;orthogonalLoop=1;jettySize=auto;elbow=vertical;html=1;" edge="1" parent="WIyWlLk6GJQsqaUBKTNV-1" source="qO4f61m2Y4nxAiU2VlyZ-360" target="qO4f61m2Y4nxAiU2VlyZ-361">
          <mxGeometry relative="1" as="geometry" />
        </mxCell>
        <mxCell id="qO4f61m2Y4nxAiU2VlyZ-360" value="si luz de carril 2 esta encendido" style="strokeWidth=2;html=1;shape=mxgraph.flowchart.decision;whiteSpace=wrap;fillColor=#ffe6cc;strokeColor=#d79b00;" vertex="1" parent="WIyWlLk6GJQsqaUBKTNV-1">
          <mxGeometry x="268" y="3180" width="160" height="70" as="geometry" />
        </mxCell>
        <mxCell id="qO4f61m2Y4nxAiU2VlyZ-361" value="luz peatonal 4&lt;div&gt;apagado&lt;/div&gt;" style="verticalLabelPosition=bottom;verticalAlign=top;html=1;shape=process;whiteSpace=wrap;rounded=1;size=0.14;arcSize=6;fillColor=#f8cecc;strokeColor=#b85450;" vertex="1" parent="WIyWlLk6GJQsqaUBKTNV-1">
          <mxGeometry x="470" y="3190" width="80" height="50" as="geometry" />
        </mxCell>
        <mxCell id="qO4f61m2Y4nxAiU2VlyZ-362" value="" style="edgeStyle=elbowEdgeStyle;rounded=0;orthogonalLoop=1;jettySize=auto;elbow=vertical;html=1;" edge="1" parent="WIyWlLk6GJQsqaUBKTNV-1" source="qO4f61m2Y4nxAiU2VlyZ-364" target="qO4f61m2Y4nxAiU2VlyZ-365">
          <mxGeometry relative="1" as="geometry" />
        </mxCell>
        <mxCell id="qO4f61m2Y4nxAiU2VlyZ-363" value="" style="edgeStyle=elbowEdgeStyle;rounded=0;orthogonalLoop=1;jettySize=auto;elbow=vertical;html=1;" edge="1" parent="WIyWlLk6GJQsqaUBKTNV-1" source="qO4f61m2Y4nxAiU2VlyZ-364" target="qO4f61m2Y4nxAiU2VlyZ-366">
          <mxGeometry relative="1" as="geometry" />
        </mxCell>
        <mxCell id="qO4f61m2Y4nxAiU2VlyZ-364" value="si luz de carril 2 esta encendido" style="strokeWidth=2;html=1;shape=mxgraph.flowchart.decision;whiteSpace=wrap;fillColor=#ffe6cc;strokeColor=#d79b00;" vertex="1" parent="WIyWlLk6GJQsqaUBKTNV-1">
          <mxGeometry x="268" y="3380" width="160" height="70" as="geometry" />
        </mxCell>
        <mxCell id="qO4f61m2Y4nxAiU2VlyZ-365" value="luz peatonal 1&lt;div&gt;apagado&lt;/div&gt;" style="verticalLabelPosition=bottom;verticalAlign=top;html=1;shape=process;whiteSpace=wrap;rounded=1;size=0.14;arcSize=6;fillColor=#f8cecc;strokeColor=#b85450;" vertex="1" parent="WIyWlLk6GJQsqaUBKTNV-1">
          <mxGeometry x="470" y="3390" width="80" height="50" as="geometry" />
        </mxCell>
        <mxCell id="qO4f61m2Y4nxAiU2VlyZ-366" value="Esperar 5 segundos" style="strokeWidth=2;html=1;shape=mxgraph.flowchart.delay;whiteSpace=wrap;fillColor=#dae8fc;strokeColor=#6c8ebf;" vertex="1" parent="WIyWlLk6GJQsqaUBKTNV-1">
          <mxGeometry x="298" y="3490" width="100" height="60" as="geometry" />
        </mxCell>
      </root>
    </mxGraphModel>
  </diagram>
</mxfile>
